<svg width="60" height="60" xmlns="http://www.w3.org/2000/svg">
    <path stroke="null" id="svg_5" d="m50.820577,14.890304c-0.527208,-8.144167 -7.921069,-14.654071 -16.833767,-14.654071c-5.411601,0 -10.651785,2.409769 -13.898746,6.341592c-0.074746,-0.035291 -0.153478,-0.059724 -0.229221,-0.092301c-0.197329,-0.086871 -0.397648,-0.169218 -0.601953,-0.24342c-0.113614,-0.040721 -0.227227,-0.077822 -0.341838,-0.114018c-0.202312,-0.064248 -0.407614,-0.121258 -0.616903,-0.172837c-0.11461,-0.028052 -0.228224,-0.057009 -0.343831,-0.080537c-0.224238,-0.04615 -0.453458,-0.081442 -0.684672,-0.113113c-0.100658,-0.013574 -0.199322,-0.031672 -0.300977,-0.041626c-0.330875,-0.033482 -0.665737,-0.054294 -1.005581,-0.054294c-4.946184,0 -8.969505,3.653111 -8.969505,8.144167c0,0.114923 0.007973,0.228037 0.015946,0.34115l0,0.00362c-4.144908,2.05233 -6.992227,6.350641 -6.992227,10.653476c0,6.40946 5.742476,11.624441 12.801476,11.624441l24.424958,0c0.103648,0 0.206299,-0.005429 0.309946,-0.012669l0.06179,-0.007239l0.133546,0.007239c0.101654,0.007239 0.203309,0.012669 0.307953,0.012669l9.769784,0c6.609528,0 11.987245,-4.882881 11.987245,-10.884227c0,-4.967037 -3.814033,-9.421897 -8.993423,-10.658zm-2.993821,19.732412l-9.769784,0c-0.0588,0 -0.115607,-0.004525 -0.17341,-0.008144l-0.270082,-0.009954l-0.197329,0.009954c-0.056807,0.00362 -0.11461,0.008144 -0.172414,0.008144l-24.424958,0c-5.959738,0 -10.808253,-4.402375 -10.808253,-9.814626c0,-3.758986 2.695834,-7.660947 6.411203,-9.278016l0.565079,-0.24523l0,-0.570092c0,-0.114923 0.007973,-0.231656 0.014949,-0.349294l0.00897,-0.144785l-0.011959,-0.190031c-0.00598,-0.073298 -0.011959,-0.146595 -0.011959,-0.220797c0,-3.492038 3.130357,-6.334352 6.976281,-6.334352c0.307953,0 0.61192,0.024433 0.913893,0.060629c0.077736,0.009049 0.155471,0.020813 0.232211,0.032577c0.266095,0.039816 0.528204,0.092301 0.786327,0.160169c0.034881,0.009049 0.070759,0.015383 0.105641,0.024433c0.284034,0.078727 0.561092,0.178267 0.832171,0.290475c0.070759,0.028957 0.139526,0.060629 0.209288,0.091396c0.239187,0.107684 0.473391,0.225322 0.699621,0.358343c1.920471,1.129325 3.19713,3.088449 3.19713,5.316331c0,0.500414 0.445485,0.904907 0.996612,0.904907s0.996612,-0.404494 0.996612,-0.904907c0,-2.492115 -1.241778,-4.722712 -3.189157,-6.217619c2.857286,-3.393403 7.562289,-5.546178 12.243374,-5.546178c7.718757,0 14.128963,5.551607 14.797689,12.567355c-1.018537,-0.065153 -2.543353,-0.098635 -4.069165,0.112209c-0.54415,0.075107 -0.917879,0.53661 -0.835161,1.03069c0.074746,0.447929 0.499302,0.769171 0.983656,0.769171c0.049831,0 0.100658,-0.00362 0.150488,-0.010859c2.219454,-0.304954 4.53259,-0.019003 4.668129,-0.00181c4.640224,0.800843 8.138331,4.681991 8.138331,9.035501c0,5.003233 -4.483756,9.074412 -9.994021,9.074412z"/>
    <text stroke="#000" transform="matrix(2.3870625495910645,0,0,1.7871604426125283,-13.04705710709095,-35.77673230010781) " xml:space="preserve" text-anchor="start" font-family="Helvetica, Arial, sans-serif" font-size="24" id="svg_22" y="48.166398" x="12.036389" stroke-width="0" fill="#000000">↓</text>
</svg>