<svg xmlns="http://www.w3.org/2000/svg" xmlns:xlink="http://www.w3.org/1999/xlink" version="1.1" style="enable-background:new 0 0 41.712 41.712;" xml:space="preserve" width="44.64102566453835" height="44"><rect id="backgroundrect" width="100%" height="100%" x="0" y="0" fill="none" stroke="none" class="" style=""/>
        
        <g class="currentLayer" style=""><title>Layer 1</title><path d="M33.44055104923248,22.905084387916293 c0.4610583572387697,-0.47382730150222796 0.4610583572387697,-1.2197851477861406 0,-1.6936124492883686 c-0.44548206138610863,-0.47382730150222796 -1.1869137439727784,-0.47382730150222796 -1.6313573856353762,0 l-8.356163515090943,8.57157857131958 V1.4611974591195245 c0,-0.6605835577249528 -0.5109025039672852,-1.2027102900743485 -1.1536843128204346,-1.2027102900743485 c-0.6427818088531497,0 -1.1702990283966064,0.5421267323493959 -1.1702990283966064,1.2027102900743485 v28.321853050827983 l-8.339548799514771,-8.57157857131958 c-0.4610583572387697,-0.47382730150222796 -1.2035284595489502,-0.47382730150222796 -1.647972101211548,0 c-0.4610583572387697,0.47382730150222796 -0.4610583572387697,1.2197851477861406 0,1.6936124492883686 l10.334353088378906,10.620561496734618 c0.44548206138610863,0.45781962239742297 1.1869137439727784,0.45781962239742297 1.647972101211548,0 L33.44055104923248,22.905084387916293 zM41.63160582828522,30.68054771842357 c0,-0.6605835577249528 0.5109025039672852,-1.1856354323625564 1.1536843128204346,-1.1856354323625564 c0.6427818088531497,0 1.1702990283966064,0.5250518746376038 1.1702990283966064,1.1856354323625564 v11.653590388298035 c0,0.6605835577249528 -0.527517219543457,1.2027102900743485 -1.1702990283966064,1.2027102900743485 H1.7947099752426148 C1.1519281663894652,43.53684839679596 0.6410256624221802,42.99472166444656 0.6410256624221802,42.3341381067216 v-11.653590388298035 c0,-0.6605835577249528 0.5109025039672852,-1.1856354323625564 1.1536843128204346,-1.1856354323625564 s1.1702990283966064,0.5250518746376038 1.1702990283966064,1.1856354323625564 v10.467954955935477 h38.66659682464599 V30.68054771842357 z" id="svg_1" class=""/></g></svg>