            <svg xmlns="http://www.w3.org/2000/svg" version="1.0" width="120.000000pt" height="60.000000pt"
                viewBox="100 260 2600.000000 1200.000000" preserveAspectRatio="xMidYMid meet"
                onclick="_ => window.open('https://www.quickrelease.co.uk')">
                <g transform="translate(0.000000,1407.000000) scale(0.100000,-0.100000)" fill="#000000" stroke="none">
                    <path fill="#303030"
                        d="M5445 11403 c-27 -2 -113 -10 -190 -18 -978 -107 -1834 -516 -2559 -1225 -595 -582 -982 -1224 -1190 -1976 -154 -555 -196 -1220 -115 -1829 129 -976 569 -1831 1312 -2552 716 -693 1529 -1091 2477 -1212 1064 -136 2086 90 2975 658 l120 77 484 -343 484 -343 829 0 c455 0 828 3 828 8 0 4 -421 304 -935 666 l-934 660 68 75 c386 429 692 947 876 1482 101 295 173 627 212 979 24 215 23 733 0 950 -115 1047 -532 1916 -1277 2660 -760 759 -1663 1182 -2720 1275 -148 13 -595 18 -745 8z m740 -978 c561 -65 1037 -238 1485 -537 198 -133 337 -246 519 -423 586 -572 915 -1219 1026 -2015 22 -156 31 -597 16 -770 -59 -682 -287 -1272 -690 -1790 -122 -156 -301 -352 -317 -346 -7 3 -1264 886 -2792 1963 l-2779 1958 54 108 c243 487 620 921 1079 1242 525 368 1102 574 1745 625 151 12 492 4 654 -15z m-1318 -4701 c1380 -972 2516 -1774 2526 -1784 17 -16 11 -20 -123 -84 -334 -160 -680 -262 -1065 -313 -160 -21 -665 -24 -820 -5 -816 101 -1468 416 -2041 987 -303 302 -502 575 -679 930 -167 334 -271 677 -320 1048 -36 277 -38 639 -5 887 5 41 10 81 10 88 0 6 2 12 5 12 2 0 1133 -795 2512 -1766z" />
                    <path fill="#303030"
                        d="M12547 11333 c-4 -3 -7 -1959 -7 -4345 l0 -4338 485 0 485 0 0 1920 0 1920 946 -2 945 -3 995 -1915 c547 -1053 998 -1918 1002 -1922 5 -5 250 -7 545 -6 l537 3 -1021 1970 c-561 1083 -1021 1973 -1022 1978 -1 5 34 22 78 37 727 249 1329 906 1520 1661 51 201 67 322 72 554 10 434 -58 765 -231 1120 -263 539 -753 995 -1298 1209 -225 88 -463 139 -733 156 -178 11 -3287 14 -3298 3z m3458 -992 c200 -45 382 -128 545 -249 153 -113 327 -309 416 -468 228 -407 242 -948 37 -1359 -72 -143 -158 -260 -283 -386 -222 -223 -462 -349 -775 -406 -80 -15 -220 -17 -1262 -20 l-1173 -4 0 1461 0 1461 1198 -4 1197 -3 100 -23z" />
                    <path fill="red" d="M20170 2165 l0 -485 2530 0 2530 0 0 485 0 485 -2530 0 -2530 0 0 -485z" />
                    </g>
            </svg>